<svg width="18" height="23" viewBox="0 0 18 23" fill="none" xmlns="http://www.w3.org/2000/svg">
<path d="M18 1C18 0.447715 17.5523 3.64814e-08 17 0C16.4477 -3.64814e-08 16 0.447715 16 1L18 1ZM16 22C16 22.5523 16.4477 23 17 23C17.5523 23 18 22.5523 18 22L16 22ZM8 17.7893L7.48452 16.9324L7.48452 16.9324L8 17.7893ZM11.5624 15.6462L12.0779 16.5031L12.0779 16.5031L11.5624 15.6462ZM11.5624 7.3539L12.0779 6.497L12.0779 6.497L11.5624 7.3539ZM8 5.21088L8.51548 4.35397L8.51548 4.35397L8 5.21088ZM15.341 12.7155L14.4222 12.3207L14.4222 12.3207L15.341 12.7155ZM15.341 10.2848L14.4222 10.6795L14.4222 10.6795L15.341 10.2848ZM1.55788 18.5435L2.37461 17.9665L2.37461 17.9665L1.55788 18.5435ZM3.61364 19.7616L3.50909 20.7561L3.50909 20.7561L3.61364 19.7616ZM1.55788 4.45667L0.741162 3.87964L0.741161 3.87964L1.55788 4.45667ZM3.61364 3.23866L3.50909 2.24414L3.61364 3.23866ZM16 1L16 22L18 22L18 1L16 1ZM0 9.35712V13.6432H2V9.35712H0ZM8.51548 18.6462L12.0779 16.5031L11.047 14.7893L7.48452 16.9324L8.51548 18.6462ZM12.0779 6.497L8.51548 4.35397L7.48452 6.06778L11.047 8.2108L12.0779 6.497ZM12.0779 16.5031C13.1933 15.8321 14.0904 15.2937 14.7506 14.8082C15.409 14.3239 15.9626 13.8019 16.2598 13.1102L14.4222 12.3207C14.3382 12.5162 14.135 12.7782 13.5656 13.197C12.998 13.6145 12.1964 14.0979 11.047 14.7893L12.0779 16.5031ZM11.0469 8.2108C12.1964 8.90227 12.998 9.38568 13.5656 9.80317C14.135 10.222 14.3382 10.484 14.4222 10.6795L16.2598 9.89002C15.9626 9.1984 15.409 8.67628 14.7506 8.19203C14.0905 7.70648 13.1933 7.16801 12.0779 6.497L11.0469 8.2108ZM16.2598 13.1102C16.7006 12.0843 16.7006 10.916 16.2598 9.89002L14.4222 10.6795C14.6464 11.2014 14.6464 11.7988 14.4222 12.3207L16.2598 13.1102ZM0 13.6432C0 14.9943 -0.00094561 16.0749 0.07367 16.9136C0.147676 17.7454 0.305693 18.5042 0.741162 19.1206L2.37461 17.9665C2.25219 17.7933 2.13127 17.4722 2.0658 16.7363C2.00095 16.0074 2 15.0326 2 13.6432H0ZM7.48452 16.9324C6.31956 17.6332 5.50565 18.1215 4.8659 18.4293C4.22006 18.74 3.9058 18.7868 3.71818 18.7671L3.50909 20.7561C4.26396 20.8354 4.99513 20.5865 5.73298 20.2315C6.47691 19.8736 7.38494 19.3263 8.51548 18.6462L7.48452 16.9324ZM0.741162 19.1206C1.38992 20.0388 2.3938 20.6388 3.50909 20.7561L3.71818 18.7671C3.18944 18.7115 2.69899 18.4256 2.37461 17.9665L0.741162 19.1206ZM2 9.35712C2 7.9677 2.00095 6.99289 2.0658 6.2639C2.13127 5.52805 2.2522 5.20696 2.37461 5.03369L0.741161 3.87964C0.30569 4.496 0.147675 5.25485 0.0736698 6.08667C-0.000945564 6.92536 0 8.00597 0 9.35712H2ZM8.51548 4.35397C7.38492 3.67387 6.4769 3.12653 5.73296 2.76863C4.99509 2.41367 4.26394 2.16479 3.50909 2.24414L3.71818 4.23318C3.90583 4.21345 4.2201 4.26024 4.86592 4.57092C5.50566 4.87869 6.31957 5.36699 7.48452 6.06778L8.51548 4.35397ZM2.37461 5.03369C2.69899 4.57457 3.18943 4.28876 3.71818 4.23318L3.50909 2.24414C2.39381 2.36138 1.38993 2.96138 0.741162 3.87964L2.37461 5.03369Z" fill="#B4C5E4"/>
</svg>
