<svg width="26" height="35" viewBox="0 0 26 35" fill="none" xmlns="http://www.w3.org/2000/svg">
<path d="M25.5 2C25.5 1.17157 24.8284 0.5 24 0.5C23.1716 0.5 22.5 1.17157 22.5 2L25.5 2ZM22.5 33C22.5 33.8284 23.1716 34.5 24 34.5C24.8284 34.5 25.5 33.8284 25.5 33L22.5 33ZM11.625 26.7842L10.8112 25.5241L10.8112 25.5241L11.625 26.7842ZM16.5233 23.6206L17.3371 24.8807L17.3371 24.8807L16.5233 23.6206ZM16.5233 11.3796L17.3371 10.1195L17.3371 10.1195L16.5233 11.3796ZM11.625 8.21606L12.4388 6.956L12.4388 6.956L11.625 8.21606ZM21.7189 19.2942L20.3263 18.7369L20.3263 18.7369L21.7189 19.2942ZM21.7189 15.7061L20.3263 16.2634L20.3263 16.2634L21.7189 15.7061ZM2.76709 27.8976L4.02011 27.073L4.02011 27.073L2.76709 27.8976ZM5.59375 29.6956L5.42553 31.1862L5.42553 31.1862L5.59375 29.6956ZM2.76709 7.1027L1.51408 6.2781L1.51408 6.2781L2.76709 7.1027ZM5.59375 5.30469L5.42553 3.81415L5.59375 5.30469ZM22.5 2L22.5 33L25.5 33L25.5 2L22.5 2ZM0.5 14.3367V20.6637H3.5V14.3367H0.5ZM12.4388 28.0442L17.3371 24.8807L15.7096 22.3606L10.8112 25.5241L12.4388 28.0442ZM17.3371 10.1195L12.4388 6.956L10.8112 9.47611L15.7096 12.6396L17.3371 10.1195ZM17.3371 24.8807C18.8688 23.8915 20.1086 23.0927 21.022 22.3716C21.939 21.6475 22.704 20.8698 23.1115 19.8516L20.3263 18.7369C20.2097 19.0283 19.934 19.4081 19.1628 20.0171C18.388 20.6288 17.2921 21.3385 15.7096 22.3606L17.3371 24.8807ZM15.7096 12.6396C17.2921 13.6617 18.388 14.3714 19.1628 14.9832C19.934 15.5922 20.2097 15.9721 20.3263 16.2634L23.1115 15.1488C22.704 14.1306 21.939 13.3528 21.022 12.6287C20.1086 11.9075 18.8688 11.1087 17.3371 10.1195L15.7096 12.6396ZM23.1115 19.8516C23.7119 18.3514 23.7119 16.649 23.1115 15.1488L20.3263 16.2634C20.6403 17.0481 20.6403 17.9522 20.3263 18.7369L23.1115 19.8516ZM0.5 20.6637C0.5 22.6598 0.498768 24.2508 0.601011 25.4845C0.70207 26.704 0.916829 27.8147 1.51408 28.7222L4.02011 27.073C3.85026 26.8149 3.68148 26.3314 3.59076 25.2368C3.50123 24.1564 3.5 22.7133 3.5 20.6637H0.5ZM10.8112 25.5241C9.20655 26.5604 8.09463 27.2764 7.22336 27.7264C6.3388 28.1833 5.95297 28.2267 5.76197 28.2051L5.42553 31.1862C6.53046 31.3109 7.58209 30.9177 8.6001 30.3919C9.63139 29.8592 10.8871 29.0463 12.4388 28.0442L10.8112 25.5241ZM1.51408 28.7222C2.40813 30.0808 3.81815 31.0048 5.42553 31.1862L5.76197 28.2051C5.10881 28.1314 4.46413 27.7477 4.02011 27.073L1.51408 28.7222ZM3.5 14.3367C3.5 12.2871 3.50123 10.844 3.59076 9.76359C3.68148 8.6689 3.85027 8.18537 4.02011 7.92729L1.51408 6.2781C0.916825 7.18566 0.702069 8.29633 0.60101 9.51583C0.498768 10.7496 0.5 12.3407 0.5 14.3367H3.5ZM12.4388 6.956C10.8871 5.95387 9.63137 5.14101 8.60006 4.60836C7.58203 4.08257 6.53042 3.68945 5.42553 3.81415L5.76197 6.79522C5.95302 6.77366 6.33887 6.817 7.22339 7.27384C8.09464 7.72383 9.20657 8.43978 10.8112 9.47611L12.4388 6.956ZM4.02011 7.92729C4.46411 7.25259 5.10879 6.86894 5.76197 6.79522L5.42553 3.81415C3.81816 3.99556 2.40814 4.91953 1.51408 6.2781L4.02011 7.92729Z" fill="#B4C5E4"/>
</svg>
