<svg width="16" height="16" viewBox="0 0 16 16" fill="none" xmlns="http://www.w3.org/2000/svg">
<g id="order">
<path id="Vector" d="M7.70711 12.7071C8.09763 12.3166 8.09763 11.6834 7.70711 11.2929C7.31658 10.9024 6.68342 10.9024 6.29289 11.2929L7.70711 12.7071ZM4 15L3.29289 15.7071C3.68342 16.0976 4.31658 16.0976 4.70711 15.7071L4 15ZM1.70711 11.2929C1.31658 10.9024 0.683418 10.9024 0.292893 11.2929C-0.0976311 11.6834 -0.0976311 12.3166 0.292893 12.7071L1.70711 11.2929ZM8.29289 3.29289C7.90237 3.68342 7.90237 4.31658 8.29289 4.70711C8.68342 5.09763 9.31658 5.09763 9.70711 4.70711L8.29289 3.29289ZM12 1L12.7071 0.292893C12.3166 -0.0976311 11.6834 -0.0976311 11.2929 0.292893L12 1ZM14.2929 4.70711C14.6834 5.09763 15.3166 5.09763 15.7071 4.70711C16.0976 4.31658 16.0976 3.68342 15.7071 3.29289L14.2929 4.70711ZM11 15C11 15.5523 11.4477 16 12 16C12.5523 16 13 15.5523 13 15L11 15ZM5 1C5 0.447715 4.55229 2.82161e-08 4 0C3.44772 -2.82161e-08 3 0.447715 3 1L5 1ZM6.29289 11.2929L3.29289 14.2929L4.70711 15.7071L7.70711 12.7071L6.29289 11.2929ZM4.70711 14.2929L1.70711 11.2929L0.292893 12.7071L3.29289 15.7071L4.70711 14.2929ZM9.70711 4.70711L12.7071 1.70711L11.2929 0.292893L8.29289 3.29289L9.70711 4.70711ZM11.2929 1.70711L14.2929 4.70711L15.7071 3.29289L12.7071 0.292893L11.2929 1.70711ZM13 15L13 1L11 1L11 15L13 15ZM3 1L3 15L5 15L5 1L3 1Z" fill="#B4C5E4"/>
</g>
</svg>
