<svg width="22" height="24" viewBox="0 0 22 24" fill="none" xmlns="http://www.w3.org/2000/svg">
<path d="M15.125 3.33334V20.6667C15.125 21.2862 15.125 21.596 15.1778 21.8536C15.3948 22.9114 16.247 23.7383 17.3379 23.9488C17.6035 24 17.923 24 18.5619 24C19.2008 24 19.5209 24 19.7865 23.9488C20.8774 23.7383 21.7306 22.9114 21.9476 21.8536C22 21.5983 22 21.2917 22 20.683V20.6667V3.33334V3.31706C22 2.70836 22 2.40182 21.9476 2.14649C21.7306 1.08864 20.8774 0.261657 19.7865 0.0512392C19.5208 0 19.2014 0 18.5625 0C17.9236 0 17.6035 0 17.3379 0.0512393C16.247 0.261657 15.3948 1.08864 15.1778 2.14649C15.125 2.40408 15.125 2.7138 15.125 3.33334Z" fill="#110F14"/>
<path d="M0 3.33334V20.6667C0 21.2862 0 21.596 0.0528405 21.8536C0.269834 22.9114 1.12199 23.7383 2.21289 23.9488C2.47854 24 2.79799 24 3.43689 24C4.07578 24 4.39585 24 4.6615 23.9488C5.7524 23.7383 6.60564 22.9114 6.82263 21.8536C6.87501 21.5983 6.875 21.2917 6.875 20.683V20.6667V3.33334V3.31702C6.875 2.70835 6.87501 2.40181 6.82263 2.14649C6.60564 1.08864 5.7524 0.261657 4.6615 0.0512392C4.39585 0 4.0764 0 3.4375 0C2.7986 0 2.47854 0 2.21289 0.0512393C1.12199 0.261657 0.269834 1.08864 0.0528404 2.14649C0 2.40408 0 2.7138 0 3.33334Z" fill="#110F14"/>
</svg>
