<svg width="23" height="24" viewBox="0 0 23 24" fill="none" xmlns="http://www.w3.org/2000/svg">
<path d="M0 20.3248V3.67499C0 2.30206 0 1.61559 0.29735 1.20938C0.556872 0.85484 0.956887 0.621678 1.40098 0.566025C1.90932 0.502321 2.53139 0.824681 3.77583 1.46955L3.77934 1.47137L19.8443 9.79628C21.225 10.5118 21.9154 10.8696 22.1417 11.346C22.3387 11.761 22.3387 12.2389 22.1417 12.6539C21.9154 13.1303 21.225 13.4881 19.8443 14.2036L3.77934 22.5285L3.77492 22.5308C2.53109 23.1753 1.90919 23.4976 1.40098 23.4339C0.956887 23.3783 0.556872 23.1451 0.29735 22.7905C0 22.3843 0 21.6977 0 20.3248Z" fill="#110F14"/>
</svg>
