<svg width="19" height="20" viewBox="0 0 19 20" fill="none" xmlns="http://www.w3.org/2000/svg">
<g id="Property 1=Variant2">
<path id="Vector" d="M1 16.2436V3.75624C1 2.72654 1 2.21169 1.21625 1.90703C1.405 1.64113 1.69592 1.46626 2.01889 1.42452C2.3886 1.37674 2.84101 1.61851 3.74606 2.10217L3.74861 2.10353L15.4322 8.34721C16.4364 8.88384 16.9385 9.1522 17.103 9.50948C17.2464 9.82072 17.2464 10.1792 17.103 10.4904C16.9385 10.8477 16.4364 11.116 15.4322 11.6527L3.74861 17.8964L3.74539 17.8981C2.84079 18.3815 2.3885 18.6232 2.01889 18.5754C1.69592 18.5337 1.405 18.3588 1.21625 18.0929C1 17.7882 1 17.2733 1 16.2436Z" stroke="#3066BE" stroke-width="2" stroke-linecap="round" stroke-linejoin="round"/>
</g>
</svg>
