<svg width="26" height="35" viewBox="0 0 26 35" fill="none" xmlns="http://www.w3.org/2000/svg">
<path d="M0.500002 33C0.500002 33.8284 1.17157 34.5 2 34.5C2.82843 34.5 3.5 33.8284 3.5 33L0.500002 33ZM3.5 2C3.5 1.17158 2.82843 0.500003 2 0.500003C1.17157 0.500003 0.500001 1.17158 0.500001 2L3.5 2ZM14.375 8.21585L15.1888 9.47591L15.1888 9.47591L14.375 8.21585ZM9.47666 11.3794L8.66287 10.1193L8.66287 10.1193L9.47666 11.3794ZM9.47666 23.6204L8.66287 24.8805L8.66287 24.8805L9.47666 23.6204ZM14.375 26.7839L13.5612 28.044L13.5612 28.044L14.375 26.7839ZM4.28113 15.7058L5.67375 16.2631L5.67375 16.2631L4.28113 15.7058ZM4.28112 19.2939L5.67374 18.7366L5.67374 18.7366L4.28112 19.2939ZM23.2329 7.10238L21.9799 7.92698L21.9799 7.92698L23.2329 7.10238ZM20.4062 5.30435L20.5745 3.81381L20.5745 3.81381L20.4062 5.30435ZM23.2329 27.8973L24.4859 28.7219L24.4859 28.7219L23.2329 27.8973ZM20.4063 29.6953L20.5745 31.1859L20.4063 29.6953ZM3.5 33L3.5 2L0.500001 2L0.500002 33L3.5 33ZM25.5 20.6633L25.5 14.3363L22.5 14.3363L22.5 20.6633L25.5 20.6633ZM13.5612 6.95579L8.66287 10.1193L10.2904 12.6394L15.1888 9.47591L13.5612 6.95579ZM8.66287 24.8805L13.5612 28.044L15.1888 25.5239L10.2904 22.3604L8.66287 24.8805ZM8.66287 10.1193C7.13119 11.1085 5.89141 11.9073 4.97804 12.6284C4.06105 13.3525 3.29601 14.1302 2.88852 15.1484L5.67375 16.2631C5.79035 15.9717 6.06597 15.5919 6.83716 14.983C7.61197 14.3712 8.70791 13.6615 10.2904 12.6394L8.66287 10.1193ZM10.2904 22.3604C8.70793 21.3383 7.61199 20.6286 6.83718 20.0168C6.06599 19.4078 5.79035 19.0279 5.67374 18.7366L2.88851 19.8512C3.296 20.8694 4.06101 21.6472 4.97801 22.3713C5.89139 23.0925 7.13117 23.8913 8.66287 24.8805L10.2904 22.3604ZM2.88852 15.1484C2.28813 16.6486 2.28811 18.351 2.88851 19.8512L5.67374 18.7366C5.35971 17.9519 5.35971 17.0478 5.67375 16.2631L2.88852 15.1484ZM25.5 14.3363C25.5 12.3402 25.5012 10.7492 25.399 9.51547C25.2979 8.29598 25.0832 7.18534 24.4859 6.27779L21.9799 7.92698C22.1497 8.18507 22.3185 8.66858 22.4092 9.76323C22.4988 10.8436 22.5 12.2867 22.5 14.3363L25.5 14.3363ZM15.1888 9.47591C16.7934 8.43957 17.9054 7.72358 18.7766 7.27355C19.6612 6.81667 20.047 6.77333 20.238 6.79489L20.5745 3.81381C19.4695 3.68911 18.4179 4.0823 17.3999 4.60811C16.3686 5.14079 15.1129 5.95368 13.5612 6.95579L15.1888 9.47591ZM24.4859 6.27779C23.5919 4.91923 22.1819 3.99522 20.5745 3.81381L20.238 6.79489C20.8912 6.8686 21.5359 7.25226 21.9799 7.92698L24.4859 6.27779ZM22.5 20.6633C22.5 22.7129 22.4988 24.156 22.4092 25.2364C22.3185 26.3311 22.1497 26.8146 21.9799 27.0727L24.4859 28.7219C25.0832 27.8143 25.2979 26.7037 25.399 25.4842C25.5012 24.2504 25.5 22.6593 25.5 20.6633L22.5 20.6633ZM13.5612 28.044C15.1129 29.0461 16.3686 29.859 17.3999 30.3916C18.418 30.9174 19.4696 31.3105 20.5745 31.1859L20.238 28.2048C20.047 28.2263 19.6611 28.183 18.7766 27.7262C17.9054 27.2762 16.7934 26.5602 15.1888 25.5239L13.5612 28.044ZM21.9799 27.0727C21.5359 27.7474 20.8912 28.1311 20.238 28.2048L20.5745 31.1859C22.1818 31.0044 23.5919 30.0805 24.4859 28.7219L21.9799 27.0727Z" fill="#B4C5E4"/>
</svg>
