<svg width="19" height="20" viewBox="0 0 19 20" fill="none" xmlns="http://www.w3.org/2000/svg">
<path d="M0 16.9373V3.06249C0 1.91838 0 1.34633 0.243286 1.00782C0.455623 0.712366 0.782907 0.518065 1.14625 0.471688C1.56217 0.418601 2.07114 0.687235 3.08932 1.22463L3.09219 1.22614L16.2362 8.16356C17.3659 8.75982 17.9308 9.058 18.1159 9.45498C18.2772 9.8008 18.2772 10.1991 18.1159 10.5449C17.9308 10.9419 17.3659 11.2401 16.2362 11.8363L3.09219 18.7737L3.08859 18.7756C2.0709 19.3128 1.56207 19.5813 1.14625 19.5283C0.782907 19.4819 0.455623 19.2876 0.243286 18.9921C0 18.6536 0 18.0814 0 16.9373Z" fill="#110F14"/>
</svg>
