<svg width="30" height="14" viewBox="0 0 30 14" fill="none" xmlns="http://www.w3.org/2000/svg">
<path d="M11 7L6 12M6 12L1 7M6 12V4.2002C6 3.08009 6 2.51962 6.21799 2.0918C6.40973 1.71547 6.71547 1.40973 7.0918 1.21799C7.51962 1 8.08009 1 9.2002 1H19.0002" stroke="#3066BE" stroke-width="2" stroke-linecap="round" stroke-linejoin="round"/>
<path d="M18.5 6.5L23.5 1.5M23.5 1.5L28.5 6.5M23.5 1.5V9.30309C23.5 10.421 23.5 10.9802 23.2822 11.4076C23.0905 11.7839 22.7839 12.0905 22.4076 12.2822C21.9802 12.5 21.421 12.5 20.3031 12.5H10.5" stroke="#3066BE" stroke-width="2" stroke-linecap="round" stroke-linejoin="round"/>
</svg>
