<svg width="30" height="14" viewBox="0 0 30 14" fill="none" xmlns="http://www.w3.org/2000/svg">
<path d="M11.5 7.5L6.5 12.5M6.5 12.5L1.5 7.5M6.5 12.5V4.7002C6.5 3.58009 6.5 3.01962 6.71799 2.5918C6.90973 2.21547 7.21547 1.90973 7.5918 1.71799C8.01962 1.5 8.58009 1.5 9.7002 1.5H19.5002" stroke="#B4C5E4" stroke-width="2" stroke-linecap="round" stroke-linejoin="round"/>
<path d="M19 7L24 2M24 2L29 7M24 2V9.80309C24 10.921 24 11.4802 23.7822 11.9076C23.5905 12.2839 23.2839 12.5905 22.9076 12.7822C22.4802 13 21.921 13 20.8031 13H11" stroke="#B4C5E4" stroke-width="2" stroke-linecap="round" stroke-linejoin="round"/>
</svg>
