<svg width="22" height="24" viewBox="0 0 22 24" fill="none" xmlns="http://www.w3.org/2000/svg">
<g id="settings">
<path id="Vector" d="M20.4285 15.1832V8.41673V8.41168C20.4285 7.69271 20.4285 7.33255 20.3311 7.00998C20.2446 6.72391 20.1034 6.46054 19.9162 6.23701C19.7055 5.98527 19.4152 5.80509 18.8377 5.4465L18.8314 5.44264L13.3821 2.05938L13.3766 2.05595C12.7985 1.69707 12.5091 1.51739 12.2009 1.44693C11.9273 1.38439 11.6447 1.38439 11.3711 1.44693C11.0618 1.51761 10.7703 1.69822 10.1886 2.05938L4.73924 5.44264C4.15751 5.8038 3.867 5.98437 3.65547 6.23701C3.4683 6.46054 3.32695 6.72391 3.24051 7.00998C3.14282 7.3333 3.14282 7.6944 3.14282 8.41673V15.1832C3.14282 15.9056 3.14282 16.2667 3.24051 16.59C3.32695 16.8761 3.4683 17.1395 3.65547 17.363C3.867 17.6157 4.15751 17.7963 4.73924 18.1574L10.1886 21.5407C10.7703 21.9019 11.0619 22.0824 11.3711 22.1531C11.6447 22.2157 11.9273 22.2157 12.2009 22.1531C12.5101 22.0824 12.8014 21.9019 13.3831 21.5407L18.8324 18.1574C19.4141 17.7963 19.7047 17.6157 19.9162 17.363C20.1034 17.1395 20.2446 16.8761 20.3311 16.59C20.4285 16.2675 20.4285 15.9073 20.4285 15.1883V15.1832Z" stroke="#B4C5E4" stroke-width="2" stroke-linecap="round" stroke-linejoin="round"/>
</g>
</svg>
