<svg width="22" height="21" viewBox="0 0 22 21" fill="none" xmlns="http://www.w3.org/2000/svg">
<path id="Vector" d="M19.3461 7.35073L18.9799 7.14701C18.923 7.11537 18.8945 7.09949 18.8671 7.08304C18.594 6.91946 18.364 6.69303 18.196 6.42262C18.1791 6.39541 18.1625 6.36729 18.1299 6.3109L18.1298 6.31069C18.0973 6.25436 18.0809 6.22604 18.0658 6.19779C17.9151 5.91647 17.834 5.60321 17.8292 5.28412C17.8287 5.25533 17.8292 5.22587 17.8301 5.17302L17.8304 5.15397L17.8375 4.73697C17.849 4.05094 17.8547 3.70798 17.7587 3.40042C17.6737 3.12834 17.5318 2.8775 17.342 2.66483C17.1278 2.42484 16.8309 2.25374 16.2385 1.91234L16.2354 1.91057L15.7416 1.62601C15.1487 1.28438 14.8522 1.11364 14.5375 1.04849C14.259 0.990865 13.9715 0.993169 13.694 1.05545C13.3812 1.12567 13.0887 1.30083 12.5047 1.65055L12.5002 1.65323L12.1464 1.86509C12.0904 1.89859 12.0621 1.9153 12.0341 1.93089C11.7558 2.08561 11.4446 2.1717 11.1264 2.18192C11.0943 2.18295 11.0617 2.18295 10.9965 2.18295H10.9956C10.9308 2.18295 10.8986 2.18295 10.8666 2.18192C10.5476 2.17166 10.2355 2.08518 9.95678 1.92982C9.92971 1.91473 9.90281 1.89858 9.85073 1.86731L9.84472 1.86371L9.48864 1.64993L9.48596 1.64833C8.89839 1.29558 8.60433 1.11904 8.28991 1.04849C8.01134 0.985992 7.72239 0.983897 7.44292 1.04227C7.12702 1.10825 6.82962 1.28083 6.23509 1.62589L5.74743 1.90892C5.15599 2.25218 4.8607 2.42374 4.64733 2.6639C4.45857 2.87636 4.31719 3.12662 4.23274 3.39798C4.13728 3.70472 4.14266 4.04664 4.15417 4.73038L4.16131 5.15504C4.1624 5.21935 4.16312 5.25152 4.16265 5.28315C4.15791 5.60289 4.07649 5.91682 3.92538 6.19864C3.91044 6.22651 3.89433 6.25438 3.86218 6.31006C3.82999 6.36577 3.81392 6.39356 3.79723 6.42044C3.62851 6.69229 3.39703 6.91979 3.12223 7.08365C3.09505 7.09986 3.06714 7.11545 3.01085 7.14664L2.64929 7.34701L2.64916 7.34708C2.04768 7.6804 1.74699 7.84703 1.52819 8.08443C1.33462 8.29446 1.18805 8.54353 1.09878 8.81485C0.998015 9.12115 0.998795 9.46456 1.00035 10.1505L1.00036 10.1532L1.00164 10.7154L1.00165 10.7214C1.00319 11.4006 1.00396 11.741 1.10479 12.0447C1.19426 12.3142 1.3401 12.5615 1.53259 12.7703C1.74993 13.006 2.04821 13.1719 2.64392 13.5033L2.64587 13.5044L3.00421 13.7038L3.00918 13.7065C3.06688 13.7386 3.09663 13.7552 3.12523 13.7724C3.39755 13.9364 3.62653 14.163 3.79382 14.4333C3.81188 14.4625 3.82923 14.4928 3.8639 14.5533L3.86393 14.5534C3.8982 14.6132 3.91553 14.6432 3.93137 14.6732C4.07805 14.9509 4.15731 15.2592 4.16266 15.5732C4.16324 15.6071 4.1627 15.6416 4.16154 15.7106L4.15466 16.1181L4.15463 16.1196C4.14307 16.8047 4.13728 17.1474 4.23323 17.4548C4.31817 17.7269 4.46048 17.9777 4.65026 18.1903C4.86479 18.4308 5.1617 18.6021 5.75622 18.9447L6.24992 19.2292C6.84278 19.5709 7.13964 19.7416 7.45438 19.8067C7.73282 19.8644 8.02028 19.862 8.29772 19.7997C8.61066 19.7295 8.90328 19.5543 9.48784 19.2042L9.49157 19.202L9.8454 18.9901C9.90137 18.9566 9.92954 18.9399 9.95758 18.9243C10.2359 18.7696 10.5469 18.6835 10.8651 18.6733C10.8972 18.6723 10.9298 18.6723 10.995 18.6723C11.0604 18.6723 11.0936 18.6723 11.1257 18.6733C11.4446 18.6836 11.7563 18.77 12.035 18.9253C12.0631 18.941 12.0913 18.9578 12.1473 18.9915L12.5034 19.2053L12.5041 19.2056C13.093 19.5592 13.3874 19.736 13.7022 19.8066C13.9808 19.8691 14.2692 19.8713 14.5487 19.813C14.8646 19.747 15.1622 19.5744 15.7567 19.2294L16.2444 18.9463C16.8358 18.6031 17.1312 18.4315 17.3445 18.1913C17.5333 17.9789 17.6747 17.7286 17.7591 17.4573C17.8546 17.1505 17.8491 16.8086 17.8376 16.1249L17.8304 15.7002L17.8301 15.6787C17.8292 15.6283 17.8287 15.6001 17.8291 15.5722C17.8339 15.2524 17.9152 14.9384 18.0663 14.6566C18.0812 14.6288 18.0973 14.6009 18.1294 14.5454L18.1295 14.5452C18.1617 14.4895 18.178 14.4616 18.1947 14.4347C18.3635 14.1629 18.5947 13.9355 18.8695 13.7716C18.8958 13.756 18.9231 13.7408 18.9758 13.7116L18.9813 13.7086L19.3429 13.5082C19.9444 13.1748 20.245 13.0082 20.4638 12.7708C20.6574 12.5608 20.8037 12.3117 20.8929 12.0404C20.9938 11.7337 20.9934 11.3898 20.9919 10.7021L20.9906 10.1399C20.989 9.45675 20.9882 9.11508 20.8871 8.81046C20.7976 8.54096 20.6516 8.29365 20.4592 8.08489C20.2416 7.84892 19.9431 7.68285 19.3461 7.35073Z" stroke="white" stroke-width="2" stroke-linecap="round" stroke-linejoin="round"/>
</svg>
