<svg width="19" height="14" viewBox="0 0 19 14" fill="none" xmlns="http://www.w3.org/2000/svg">
<path d="M1 10C0.447715 10 0 10.4477 0 11C0 11.5523 0.447715 12 1 12V10ZM7 12C7.55228 12 8 11.5523 8 11C8 10.4477 7.55228 10 7 10V12ZM1 5C0.447715 5 0 5.44772 0 6C0 6.55228 0.447715 7 1 7V5ZM10 7C10.5523 7 11 6.55228 11 6C11 5.44772 10.5523 5 10 5V7ZM16 5C16 4.44772 15.5523 4 15 4C14.4477 4 14 4.44772 14 5H16ZM15 13L14.2929 13.7071C14.6834 14.0976 15.3166 14.0976 15.7071 13.7071L15 13ZM18.7071 10.7071C19.0976 10.3166 19.0976 9.68342 18.7071 9.29289C18.3166 8.90237 17.6834 8.90237 17.2929 9.29289L18.7071 10.7071ZM12.7071 9.29289C12.3166 8.90237 11.6834 8.90237 11.2929 9.29289C10.9024 9.68342 10.9024 10.3166 11.2929 10.7071L12.7071 9.29289ZM1 0C0.447715 0 0 0.447715 0 1C0 1.55228 0.447715 2 1 2V0ZM13 2C13.5523 2 14 1.55228 14 1C14 0.447715 13.5523 0 13 0V2ZM1 12H7V10H1V12ZM1 7H10V5H1V7ZM14 5V13H16V5H14ZM17.2929 9.29289L14.2929 12.2929L15.7071 13.7071L18.7071 10.7071L17.2929 9.29289ZM15.7071 12.2929L12.7071 9.29289L11.2929 10.7071L14.2929 13.7071L15.7071 12.2929ZM1 2H13V0H1V2Z" fill="#B4C5E4"/>
</svg>
